<?xml version="1.0" standalone="no"?>
<!DOCTYPE svg PUBLIC "-//W3C//DTD SVG 1.1//EN" "http://www.w3.org/Graphics/SVG/1.1/DTD/svg11.dtd">
<svg xmlns="http://www.w3.org/2000/svg" id="Layer_1" viewBox="0 0 739.75 345.38" width="739.75" height="345.3800048828125"><defs><style>.cls-1{fill:#fcfdff;}</style></defs><g><path class="cls-1" d="M325.42,173.47h6.82l-6.17,18.52h.65c8.61-13.16,15.92-19.66,21.61-19.66,6.5,0,10.24,4.71,10.24,12.35,0,4.71-2.6,12.35-6.5,19.01,6.01-2.11,10.72-5.04,13.97-8.94,2.11-2.76,4.55-6.01,7.31-10.07l.97-.16,4.39,3.09c-2.11,3.74-4.71,7.47-7.96,11.21-6.01,7.15-13.48,11.37-25.18,13.81-4.06,4.39-7.96,6.66-11.7,6.66-5.69,0-9.58-3.09-9.58-7.64,0-3.9,8.94-7.96,20.47-8.77,3.41-5.85,6.17-14.3,6.17-18.2,0-3.09-.97-4.71-3.09-4.71-3.9,0-18.36,13.32-27.46,31.19l-16.57,52.48h-7.8l29.4-90.17Z"/><path class="cls-1" d="M376.43,174.6c5.04-12.67,9.42-23.07,13.48-31.03,3.25-6.66,5.04-8.61,7.63-8.61,3.25,0,4.55,3.09,4.55,6.99,0,4.39-2.27,10.72-6.82,18.85-4.55,7.96-9.1,14.62-13.81,19.82-3.09,8.61-5.36,18.85-5.36,24.86,0,4.06,1.14,6.17,3.25,6.17,5.04,0,13.81-9.58,22.91-22.74l2.76-4.22h.97l4.22,3.09-3.09,4.71c-5.2,7.64-10.4,13.97-15.76,19.01-5.2,5.04-9.42,7.64-12.83,7.64-4.71,0-9.42-2.6-9.42-12.83,0-8.61,2.44-19.17,7.31-31.68Z"/><path class="cls-1" d="M423.06,172.17c4.39,0,7.47,3.25,9.58,9.91l.33-1.14c.65-1.46,.97-2.76,1.46-3.9h7.47c-5.36,15.43-9.1,26.97-9.1,32.17,0,1.62,.49,2.44,1.3,2.44,2.76,0,11.21-10.07,20.31-23.23l2.76-4.23h.97l4.22,3.09-3.09,4.71c-11.86,17.38-19.98,26.81-27.62,26.81-3.9,0-6.01-3.41-6.01-8.45,0-1.46,.33-3.57,.81-6.34h-.49c-6.66,9.26-12.18,14.78-17.55,14.78-6.01,0-10.07-5.52-10.07-14.62-.49-16.73,14.13-32.49,24.69-32.01Zm-1.14,6.99c-6.66,0-16.08,12.51-16.08,25.02,0,4.39,1.46,7.64,3.41,7.64,4.71,0,11.21-8.12,19.66-21.77-.65-5.2-3.57-10.89-6.99-10.89Z"/><path class="cls-1" d="M445.64,238.29c7.15-8.94,15.11-14.14,27.29-21.77,3.41-8.94,5.69-15.43,7.15-19.5l.16-.32h-.65c-4.06,6.34-7.96,11.7-12.02,16.08-3.9,4.39-7.31,6.5-10.07,6.5-4.55,0-6.66-4.22-6.66-9.42,0-8.29,4.22-20.96,9.91-35.25h7.96c-.49,.97-1.62,3.9-3.41,8.94-1.62,5.04-3.09,9.91-4.55,14.95s-2.11,8.61-2.11,10.89c0,1.46,.33,2.27,.97,2.27,1.79,0,5.69-4.55,11.86-13.65,6.34-9.1,11.21-16.9,14.62-23.39h7.8c-1.46,5.69-6.17,19.98-11.53,36.39,6.66-5.04,12.67-10.72,18.36-17.38,2.11-2.28,4.39-5.2,6.82-8.94h.81l4.22,3.09c-2.92,4.55-5.52,8.12-7.64,10.72-6.34,7.8-13.16,13.16-25.51,21.12l-3.9,11.05c-2.11,5.85-4.06,11.05-6.17,15.6-1.95,4.55-4.55,8.77-7.96,12.67-3.25,3.9-6.82,5.85-10.89,5.85-6.99,0-10.4-4.71-10.4-12.51,0-4.71,1.79-9.42,5.52-13.97Zm2.11,14.78c0,3.09,1.3,4.22,2.76,4.22,5.04,0,10.23-7.96,18.85-31.35-14.3,10.23-21.61,18.03-21.61,27.13Z"/><path class="cls-1" d="M585.51,236.34c-16.01,1.25-28.27,1.95-36.76,1.95-7.38,0-13.37-2.37-17.69-7.24-4.32-4.87-6.4-11-6.4-18.38,0-1.95,.14-3.9,.42-5.85h-.56c-6.13,8.22-10.44,12.67-15.04,12.67-5.15,0-8.77-4.87-8.77-12.53-.42-14.06,12.25-27.85,21.17-27.43,3.9,0,6.68,2.92,8.35,8.91l1.81-4.6h6.41l-.42,.97c-4.6,11.84-6.82,21.17-6.82,27.85,0,13.37,6.82,20.05,17.55,20.05,5.99,0,12.81-.42,20.47-1.11l13.65-1.25,22.14-2.09c5.29-.42,10.58-.56,16.01-.56,13.79,0,26.6,3.2,33.7,6.68l-3.2,6.68c-9.61-4.46-20.05-6.68-31.47-6.68-10.17,0-22.98,.97-34.53,1.95Zm-64.61-50.83c-5.57,0-13.65,10.72-13.65,21.44,0,3.76,1.25,6.55,2.92,6.55,4.04,0,9.33-6.82,16.71-18.66-.56-4.46-3.06-9.33-5.99-9.33Z"/></g><g><path class="cls-1" d="M149.17,112.59c-4.49-4.7-9.82-7-15.88-7-6.37,0-11.8,3.97-11.8,10.55,0,4.6,4.7,7.52,15.56,13.37,11.7,6.27,19.01,11.7,19.01,19.64,0,10.03-6.68,20.47-22.66,20.47-10.44,0-16.92-4.6-24.44-12.22l6.06-6.58c5.85,6.27,11.17,10.55,18.38,10.55,8.46,0,14.1-4.28,14.1-11.49,0-3.66-3.34-5.95-12.01-10.86l-4.49-2.61c-11.28-6.68-18.07-12.32-18.07-20.26,0-10.13,7.52-19.22,19.84-19.22,6.37,0,12.85,2.4,17.44,6.06l4.18,3.13-5.22,6.47Z"/><path class="cls-1" d="M200.13,168.25c.31-7.62,.42-14.94,.42-21.93h-24.23c0,9.5,.1,16.82,.42,21.93h-9.19c.31-5.54,.42-18.28,.42-38.02v-6.89c0-17.44,8.04-26.53,20.47-26.53s20.37,9.09,20.37,26.53c0,22.56,.21,37.49,.52,44.91h-9.19Zm.42-30.18v-13.37c0-13.05-4.07-19.53-12.12-19.53-8.77,0-12.12,7.42-12.12,19.53l-.1,13.37h24.33Z"/><path class="cls-1" d="M241.7,153.42l.63-2.51c6.16-24.13,10.34-41.78,12.53-52.95h9.5c-3.86,13.37-9.5,36.76-17.02,70.29h-11.59c-7.83-34.36-13.58-57.76-17.02-70.29h9.5c1.46,8.15,3.55,17.65,6.16,28.51,2.61,10.76,5.01,19.74,7,26.95h.31Z"/><path class="cls-1" d="M284,106.53c-.1,4.7-.1,12.43-.1,22.98,5.01,.1,9.61,.21,13.89,.21,2.72,0,5.01-.1,7-.21v8.25c-3.86-.1-7.94-.21-12.12-.21l-8.88,.1,.1,22.24c3.66,.1,8.15,.21,13.58,.21,4.49,0,8.35-.1,11.7-.31v8.56h-33.84c.21-8.98,.31-20.89,.31-35.61s-.1-26.42-.31-34.67h33.84v8.88c-5.01-.31-11.17-.52-18.49-.52l-6.68,.1Z"/></g><path class="cls-1" d="M325.94,99.66c2.38-1.25,6.93-1.93,10.9-1.93,1.25,0,4.43,.23,9.31,.79,3.75,.45,6.24,.68,7.27,.68,3.75,0,6.7-.57,8.63-1.82l1.59,4.2c-2.16,1.48-5.68,2.16-10.67,2.16-1.14,0-3.86-.23-8.06-.68-2.27-.11-5.22-.57-7.83-.57-3.75,0-7.95,.57-10.1,1.59l-1.02-4.43Zm37.69,53.59c-2.16,1.48-5.68,2.16-10.67,2.16-1.14,0-3.86-.23-8.06-.68-2.27-.11-5.22-.57-7.83-.57-3.75,0-7.95,.45-10.1,1.48l-1.02-4.43c2.38-1.25,6.93-1.82,10.9-1.82,2.5,0,5.56,.23,9.31,.8,1.93,.11,5.56,.57,7.27,.57,3.97,0,6.81-.57,8.63-1.7l1.59,4.2Zm-9.2-13.74h-5.56c.11-.91,.11-2.84,.11-5.79h-8.29c0,2.95,0,4.88,.11,5.79h-5.68c.11-2.16,.23-5.9,.23-11.47v-3.97c0-6.24,3.97-10.44,9.54-10.44s9.31,4.2,9.31,10.44c0,6.93,.11,12.15,.23,15.44Zm-13.74-10.9h8.29v-4.54c0-2.38-.91-5.34-4.09-5.34s-4.2,2.95-4.2,5.34v4.54Z"/></svg>