<?xml version="1.0" standalone="no"?>
<!DOCTYPE svg PUBLIC "-//W3C//DTD SVG 1.1//EN" "http://www.w3.org/Graphics/SVG/1.1/DTD/svg11.dtd">
<svg xmlns="http://www.w3.org/2000/svg" id="Layer_1" viewBox="0 0 400 400" width="400" height="400"><defs><style>.cls-1{fill:none;}.cls-2{fill:#8bc6b8;}.cls-3{fill:#223b35;}</style></defs><g><path class="cls-3" d="M157.82,307.2l-3.86-1.64-.15,.37c-.97,2.43-2.07,5.08-3.25,7.87-1.18,2.77-2.29,5.33-3.3,7.61l-.16,.36,2.69,1.14,2.11-5.11c.48,.41,1,.73,1.57,.97h0c2.9,1.23,6-.22,7.37-3.44,1.52-3.59,.37-6.7-3.01-8.13Zm-1.08,2.54c1.12,.48,1.73,1.1,1.84,1.91h0c.16,.87,.05,1.72-.33,2.6-.94,2.23-2.54,2.49-3.73,1.99-.62-.26-1.2-.69-1.52-1.11l.76-1.8c.74-1.75,1.31-3.09,1.71-3.98,.47,.1,.88,.23,1.26,.39Z"/><path class="cls-3" d="M177.73,328.63c-1.14-.24-2.17-.47-3.11-.69l.3-1.52c.44-2.2,.81-4.07,1.12-5.59,.57-2.74,1.08-5.09,1.53-7l.09-.39-2.99-.62-.07,.39c-.47,2.54-1.03,5.35-1.66,8.36-.61,2.96-1.2,5.69-1.76,8.11l-.09,.39,8.83,1.83,.57-2.78-.41-.06c-.17-.02-.86-.13-2.36-.44Z"/><path class="cls-3" d="M204.83,322.27c.03-4.22-1.92-6.76-5.22-6.79h-.05c-1.59,0-2.92,.6-3.84,1.73-.95,1.17-1.44,2.85-1.46,4.98v1.65c-.05,5.06-.1,7.86-.18,9.08l-.03,.41,3.03,.02-.02-.41c-.06-1.05-.08-2.55-.06-4.84l5.02,.04c-.02,1.75-.06,3.34-.14,4.85l-.02,.41,3.02,.02v-.41c-.08-1.91-.09-5.73-.06-10.74Zm-5.26-4h.03c.83,0,1.43,.33,1.83,1,.44,.72,.65,1.83,.64,3.31l-.02,2.81-5.04-.04,.04-2.81c.01-1.44,.23-2.52,.64-3.23,.41-.7,1.02-1.04,1.88-1.04Z"/><path class="cls-3" d="M224.5,313.27c-.23,1.31-.55,2.84-.96,4.53-.32,1.41-.61,2.67-.88,3.78-1.85-2.73-3.37-5.03-4.64-7.02l-.14-.23-3.05,.61,.37,.5c2.77,3.75,4.91,6.82,6.71,9.63,.07,.44,.24,1.3,.54,2.83l.64,3.36,2.78-.55-1.24-6.14c1.11-4.95,2.07-8.95,2.77-11.55l.16-.61-3.01,.6-.05,.26Z"/><path class="cls-3" d="M248.83,311.43c-1.63-3.9-4.42-5.47-7.46-4.2-1.49,.62-2.49,1.7-2.9,3.11-.42,1.45-.21,3.18,.61,5.15l.63,1.52c1.98,4.75,3,7.27,3.41,8.42l.14,.39,2.8-1.17-.18-.37c-.47-.95-1.08-2.33-1.96-4.43l4.63-1.93c.67,1.6,1.25,3.08,1.78,4.51l.14,.38,2.78-1.16-.17-.37c-.81-1.73-2.32-5.24-4.25-9.86Zm-1.34,3.96l-4.65,1.94-1.06-2.6c-.55-1.33-.78-2.41-.68-3.22,.1-.81,.54-1.37,1.35-1.7,.32-.13,.62-.2,.91-.2,.41,0,.8,.13,1.17,.4,.69,.49,1.32,1.43,1.89,2.79l1.08,2.59Z"/><path class="cls-3" d="M152.78,110.22c-1.41,.67-2.86,.35-4.75-.39l-.39-.15-.87,2.81,.35,.13c1.4,.5,2.61,.83,3.82,.83,.98,0,1.96-.22,3.03-.73,1.68-.8,2.81-1.98,3.28-3.42,.4-1.23,.29-2.61-.31-3.86-.9-1.88-3.14-2.35-6.47-2.5-2.78-.13-4.03-.27-4.41-1.06-.27-.57-.28-1.16-.04-1.71,.24-.53,.71-.98,1.31-1.27,1.21-.58,2.51-.62,3.84-.12l.42,.16,.65-2.76-1.61-.32c-1.5-.35-3.24-.15-4.65,.52-1.36,.65-2.31,1.68-2.74,2.98-.41,1.21-.31,2.54,.26,3.74,.9,1.89,3.08,2.44,6.32,2.73l1.24,.1c2.3,.16,3.12,.31,3.39,.89,.63,1.31-.02,2.62-1.68,3.42Z"/><path class="cls-3" d="M172.76,105.06c-.31-1.02-.69-2.51-1.21-4.69l4.89-1.15c.4,1.7,.73,3.26,1.02,4.74l.08,.4,2.94-.69-.11-.39c-.51-1.82-1.43-5.52-2.59-10.43-.97-4.11-3.46-6.11-6.68-5.35-3.23,.76-4.57,3.67-3.6,7.78l.38,1.61c1.18,5.01,1.78,7.66,1.99,8.86l.07,.41,2.95-.7-.12-.4Zm3.05-8.53l-4.91,1.16-.62-2.74c-.33-1.4-.38-2.51-.15-3.29,.23-.78,.76-1.26,1.61-1.46,.21-.05,.41-.07,.6-.07,.54,0,1.01,.2,1.42,.61,.6,.59,1.07,1.62,1.41,3.06l.65,2.74Z"/><path class="cls-3" d="M195.44,102.13l3.4-.09,.06-.31c1.62-8.22,2.81-13.75,3.64-16.9l.13-.5-3.12,.08-.05,.32c-.43,2.55-1.28,6.59-2.51,12.03-.4-1.35-.91-3.1-1.45-5.11-.73-2.74-1.27-4.95-1.65-6.76l-.07-.32-3.11,.08,.15,.49c.98,3.25,2.58,9.18,4.5,16.7l.08,.3Z"/><path class="cls-3" d="M223.55,101.63l-.41-.05c-.8-.09-1.7-.22-2.75-.4-1.1-.19-2.03-.37-2.81-.52l.75-4.5,1.71,.27c.98,.17,1.94,.36,2.84,.54l.39,.08,.47-2.75-.41-.05c-.47-.06-1.01-.12-1.64-.23-.87-.15-1.79-.33-2.78-.52l-.1-.02c.37-2.16,.63-3.64,.82-4.66l1.2,.19c1.59,.27,3.04,.57,4.32,.87l.4,.1,.5-2.89-8.76-1.51-.06,.4c-.29,1.96-.72,4.63-1.33,8.18-.6,3.47-1.11,6.29-1.52,8.38l-.08,.39,8.76,1.51,.49-2.81Z"/><path class="cls-3" d="M253.81,96.24c-2.99-1.42-5.86,0-7.67,3.82l-.71,1.49c-2.21,4.64-3.4,7.08-3.99,8.16l-.2,.36,2.74,1.3,.16-.39c.4-.99,1.02-2.36,1.98-4.41l4.53,2.16c-.75,1.57-1.46,2.99-2.17,4.33l-.19,.36,2.72,1.3,.16-.38c.74-1.75,2.34-5.22,4.5-9.75,1.81-3.81,1.12-6.93-1.86-8.35Zm-.76,7.46l-1.21,2.54-4.55-2.17,1.23-2.53c.62-1.3,1.27-2.19,1.94-2.66,.67-.47,1.38-.51,2.17-.14,.56,.27,2.27,1.08,.43,4.95Z"/></g><g><path class="cls-1" d="M133.66,136.72c.49-.45,.97-.91,1.47-1.35,.69-.62,1.4-1.22,2.1-1.82,.49-.41,.98-.83,1.48-1.24,.74-.6,1.49-1.17,2.24-1.75,.49-.38,.98-.76,1.48-1.12,.78-.57,1.58-1.13,2.38-1.67,.48-.33,.96-.68,1.45-1,.85-.56,1.71-1.09,2.57-1.62,.46-.28,.91-.58,1.38-.86,.94-.56,1.9-1.09,2.86-1.62,.4-.22,.79-.45,1.19-.67,1.15-.61,2.32-1.19,3.49-1.76,.22-.11,.44-.22,.66-.33,1.42-.67,2.85-1.31,4.29-1.91,7.18-2.97,14.72-5.07,22.46-6.26,.14-.02,.28-.05,.42-.07,.22-.03,.44-.05,.66-.08,4.53-.64,9.12-.98,13.76-.98h0c12.97,0,25.61,2.55,37.31,7.39,1.45,.6,2.88,1.24,4.3,1.91,.21,.1,.42,.21,.63,.32,1.18,.57,2.36,1.15,3.52,1.77,.39,.21,.78,.44,1.16,.65,.97,.53,1.94,1.07,2.89,1.63,.46,.27,.9,.56,1.35,.84,.87,.54,1.74,1.08,2.59,1.64,.48,.32,.95,.66,1.43,.98,.81,.56,1.61,1.11,2.41,1.69,.49,.36,.97,.73,1.45,1.1,.76,.58,1.52,1.16,2.27,1.77,.49,.4,.97,.81,1.45,1.21,.72,.61,1.43,1.22,2.14,1.84,.48,.43,.96,.88,1.44,1.32,.42,.39,.86,.77,1.27,1.17l26.8-26.8c-.58-.56-1.16-1.11-1.74-1.66-.81-.76-1.61-1.53-2.44-2.26-.82-.73-1.65-1.43-2.48-2.14-.84-.71-1.67-1.43-2.52-2.12-.86-.7-1.74-1.37-2.62-2.05-.85-.65-1.69-1.32-2.55-1.95-.92-.68-1.87-1.32-2.81-1.98-.84-.59-1.67-1.18-2.53-1.75-1.01-.67-2.04-1.3-3.07-1.94-.81-.5-1.61-1.03-2.42-1.51-1.13-.67-2.28-1.3-3.43-1.94-.74-.41-1.47-.85-2.22-1.24-1.34-.71-2.7-1.38-4.06-2.04-.58-.28-1.15-.59-1.73-.87-1.96-.92-3.94-1.8-5.94-2.63-16.24-6.73-33.81-10.27-51.84-10.27-16.06,0-31.76,2.83-46.48,8.2-1.8,.66-3.59,1.33-5.36,2.07-.05,.02-.1,.05-.15,.07-1.95,.81-3.87,1.66-5.78,2.56-.61,.29-1.21,.61-1.82,.91-1.33,.65-2.66,1.3-3.97,2-.75,.4-1.47,.83-2.21,1.24-1.15,.64-2.31,1.27-3.44,1.95-.8,.48-1.58,.98-2.36,1.48-1.05,.66-2.1,1.3-3.14,1.99-.82,.54-1.62,1.12-2.43,1.68-.98,.68-1.96,1.35-2.92,2.05-.82,.6-1.62,1.23-2.42,1.85-.92,.71-1.85,1.42-2.76,2.15-.8,.65-1.58,1.33-2.37,2-.88,.75-1.77,1.5-2.64,2.28-.77,.69-1.53,1.41-2.29,2.12-.62,.58-1.24,1.17-1.86,1.77l26.8,26.79c.41-.39,.84-.76,1.25-1.15Z"/><path class="cls-1" d="M259.9,136.01c-.84-.7-1.7-1.37-2.56-2.04-1.75-1.36-3.53-2.67-5.36-3.9-.13-.08-.26-.16-.38-.24-4.98-3.29-10.23-6.1-15.71-8.37-11.23-4.65-23.39-7.1-35.89-7.1-12.5,0-24.66,2.45-35.89,7.1-11.23,4.65-21.55,11.52-30.39,20.36-6.63,6.63-12.15,14.09-16.46,22.15-.89,1.66-1.71,3.35-2.49,5.06-.48,1.06-.97,2.11-1.41,3.18-2.06,4.97-3.65,10.12-4.83,15.39-1.48,6.66-2.27,13.52-2.27,20.5,0,12.5,2.45,24.66,7.1,35.89,.44,1.07,.93,2.13,1.41,3.18,.78,1.71,1.6,3.4,2.49,5.06,4.31,8.05,9.83,15.52,16.46,22.15,2.05,2.05,4.18,3.98,6.38,5.81,.84,.7,1.7,1.37,2.56,2.04,1.75,1.36,3.53,2.67,5.36,3.9,.13,.08,.26,.16,.38,.24,4.98,3.29,10.23,6.1,15.71,8.37,11.23,4.65,23.39,7.1,35.89,7.1,12.5,0,24.66-2.45,35.89-7.1,11.23-4.65,21.55-11.52,30.39-20.36,6.63-6.63,12.15-14.09,16.46-22.15,.89-1.66,1.7-3.35,2.49-5.06,.48-1.06,.97-2.11,1.41-3.18,2.06-4.97,3.66-10.12,4.83-15.39,1.48-6.66,2.27-13.52,2.27-20.5,0-12.5-2.45-24.66-7.1-35.89-.44-1.07-.93-2.13-1.41-3.18-.78-1.71-1.6-3.4-2.49-5.06-4.31-8.05-9.83-15.52-16.46-22.15-2.05-2.05-4.18-3.98-6.38-5.81Z"/><path class="cls-1" d="M266.34,279.5c-.49,.45-.97,.91-1.47,1.35-.69,.62-1.4,1.22-2.11,1.82-.49,.41-.98,.83-1.48,1.24-.74,.6-1.49,1.17-2.24,1.75-.49,.37-.98,.75-1.47,1.12-.78,.58-1.58,1.13-2.38,1.68-.48,.33-.96,.68-1.45,1-.85,.56-1.71,1.09-2.57,1.63-.46,.28-.91,.58-1.37,.85-.94,.56-1.9,1.09-2.86,1.62-.4,.22-.79,.45-1.19,.66-1.15,.61-2.32,1.19-3.49,1.76-.22,.11-.44,.22-.66,.33-1.42,.67-2.85,1.31-4.29,1.91-7.21,2.99-14.79,5.09-22.57,6.27-.11,.02-.21,.04-.31,.05-.22,.03-.44,.05-.66,.08-4.53,.64-9.12,.98-13.76,.98h0c-12.97,0-25.61-2.55-37.31-7.39-1.45-.6-2.88-1.24-4.3-1.91-.21-.1-.42-.21-.63-.32-1.18-.57-2.36-1.15-3.52-1.77-.39-.21-.78-.44-1.17-.65-.97-.53-1.93-1.07-2.88-1.63-.46-.27-.91-.56-1.36-.85-.87-.54-1.73-1.07-2.58-1.64-.48-.32-.96-.66-1.44-.99-.81-.55-1.61-1.11-2.4-1.69-.49-.36-.97-.73-1.45-1.1-.76-.58-1.52-1.16-2.26-1.77-.49-.4-.97-.81-1.45-1.21-.72-.6-1.43-1.21-2.13-1.84-.49-.43-.96-.88-1.44-1.32-.42-.39-.85-.77-1.27-1.17l-26.8,26.8c.58,.56,1.16,1.11,1.75,1.66,.81,.76,1.61,1.52,2.43,2.26,.82,.73,1.65,1.44,2.49,2.15,.84,.71,1.67,1.43,2.52,2.12,.86,.7,1.74,1.37,2.62,2.05,.85,.65,1.69,1.32,2.55,1.95,.92,.68,1.87,1.32,2.81,1.98,.84,.59,1.67,1.18,2.52,1.75,1.01,.67,2.04,1.3,3.07,1.94,.81,.5,1.61,1.03,2.42,1.51,1.13,.68,2.29,1.31,3.44,1.95,.74,.41,1.46,.84,2.2,1.24,1.34,.71,2.71,1.38,4.07,2.05,.58,.28,1.14,.59,1.72,.86,1.96,.92,3.94,1.8,5.94,2.63,16.24,6.73,33.81,10.27,51.84,10.27,16.06,0,31.76-2.83,46.48-8.2,1.8-.66,3.59-1.33,5.36-2.07,.05-.02,.1-.05,.15-.07,1.94-.81,3.87-1.66,5.78-2.56,.61-.29,1.21-.61,1.81-.91,1.33-.65,2.67-1.31,3.98-2.01,.74-.39,1.47-.83,2.2-1.23,1.16-.64,2.31-1.28,3.45-1.95,.8-.47,1.58-.98,2.36-1.48,1.05-.66,2.11-1.3,3.14-1.99,.82-.54,1.62-1.12,2.43-1.68,.98-.68,1.96-1.35,2.92-2.05,.82-.6,1.62-1.23,2.42-1.86,.92-.71,1.85-1.42,2.76-2.15,.8-.65,1.58-1.33,2.37-2,.88-.75,1.77-1.5,2.64-2.28,.77-.69,1.52-1.41,2.28-2.12,.62-.58,1.25-1.17,1.86-1.77l-26.8-26.79c-.41,.39-.84,.76-1.25,1.15Zm-136.05,24.97c-1.56,0-2.83-1.26-2.83-2.83s1.26-2.83,2.83-2.83,2.83,1.27,2.83,2.83-1.27,2.83-2.83,2.83Zm139.41-5.65c1.56,0,2.83,1.27,2.83,2.83s-1.27,2.83-2.83,2.83-2.83-1.26-2.83-2.83,1.26-2.83,2.83-2.83Z"/><path class="cls-1" d="M128.62,274.46c-.46-.5-.93-.99-1.38-1.5-.59-.66-1.16-1.33-1.73-2.01-.45-.53-.9-1.06-1.34-1.6-.55-.68-1.08-1.37-1.61-2.06-.42-.55-.85-1.1-1.26-1.66-.52-.71-1.02-1.44-1.52-2.16-.38-.56-.78-1.11-1.15-1.67-.5-.76-.98-1.54-1.46-2.31-.34-.54-.69-1.08-1.01-1.63-.5-.84-.97-1.69-1.44-2.55-.28-.5-.57-.99-.84-1.5-.52-.99-1.01-1.99-1.5-2.99-.19-.39-.39-.77-.58-1.16-.66-1.4-1.29-2.82-1.89-4.26-.26-.64-.5-1.29-.75-1.94-4.34-11.15-6.65-23.11-6.65-35.37s2.29-24.16,6.62-35.29c.26-.67,.5-1.36,.78-2.02,.03-.08,.07-.16,.11-.25,.56-1.35,1.15-2.68,1.77-4,.21-.44,.44-.86,.65-1.3,.47-.96,.94-1.91,1.44-2.86,.27-.51,.57-1.02,.85-1.52,.47-.85,.94-1.69,1.43-2.53,.32-.55,.67-1.08,1.01-1.62,.48-.78,.96-1.55,1.47-2.32,.37-.56,.76-1.11,1.15-1.67,.5-.72,1-1.45,1.52-2.16,.42-.57,.85-1.12,1.28-1.68,.52-.68,1.04-1.36,1.58-2.02,.46-.56,.93-1.11,1.4-1.67,.54-.64,1.09-1.28,1.65-1.91,.49-.55,1-1.1,1.5-1.64,.35-.38,.69-.77,1.05-1.15l-26.8-26.8c-.64,.65-1.26,1.31-1.88,1.98-.66,.71-1.33,1.4-1.97,2.12-.82,.91-1.61,1.85-2.4,2.78-.63,.75-1.27,1.48-1.89,2.24-.76,.94-1.49,1.9-2.23,2.86-.6,.78-1.21,1.55-1.79,2.34-.72,.97-1.4,1.97-2.08,2.96-.55,.8-1.12,1.59-1.66,2.39-.69,1.04-1.33,2.09-1.99,3.15-.49,.79-1,1.56-1.47,2.36-.7,1.17-1.35,2.36-2.01,3.55-.39,.7-.79,1.38-1.17,2.08-.82,1.54-1.6,3.11-2.36,4.68-.18,.36-.37,.72-.54,1.08-.93,1.97-1.81,3.96-2.65,5.97-6.73,16.24-10.27,33.81-10.27,51.84s3.54,35.6,10.27,51.84c.24,.57,.51,1.13,.75,1.69,.61,1.41,1.21,2.82,1.86,4.2,.38,.81,.81,1.61,1.21,2.41,.56,1.13,1.11,2.27,1.7,3.39,.45,.85,.95,1.68,1.42,2.53,.59,1.05,1.16,2.1,1.77,3.13,.51,.86,1.06,1.7,1.59,2.55,.62,.99,1.23,1.99,1.87,2.96,.57,.86,1.17,1.7,1.76,2.54,.65,.94,1.3,1.88,1.98,2.8,.62,.85,1.28,1.68,1.92,2.51,.69,.89,1.37,1.79,2.08,2.67,.68,.83,1.38,1.65,2.08,2.47,.72,.85,1.44,1.7,2.18,2.53,.73,.82,1.49,1.62,2.25,2.42,.55,.59,1.1,1.17,1.67,1.75l26.8-26.8c-.39-.41-.76-.83-1.14-1.24Z"/><path class="cls-1" d="M343.73,174.26c-1.3-2.87-2.03-5.54-2.38-8.67l-2.87-25.94c-.85-7.6-4.43-13.72-10.64-18.17l-20.28-14.54c-2.56-1.84-4.53-3.79-6.4-6.32l-15.46-21.02c-4.53-6.16-10.69-9.67-18.3-10.42l-4.85-.48q-24.65-2.41-46.16-11.9l-6.43-2.83c-3.43-1.5-6.93-2.27-10.4-2.27s-7.16,.81-10.66,2.39l-4.43,2.01q-22.55,10.23-45.93,12.78l-6.98,.76c-7.6,.85-13.72,4.42-18.18,10.64l-2.83,3.94q-14.42,20.15-33.38,34.04l-5.68,4.16c-6.16,4.54-9.67,10.69-10.42,18.3l-.47,4.83q-2.42,24.66-11.9,46.17l-2.83,6.44c-3.07,7.01-3.03,14.09,.13,21.06l2,4.42q10.24,22.56,12.78,45.92l.77,7c.85,7.61,4.43,13.72,10.64,18.18l3.96,2.83q20.14,14.42,34.03,33.39l4.15,5.66c4.53,6.16,10.69,9.67,18.3,10.43l4.85,.48q24.65,2.41,46.17,11.9l6.42,2.82c6.95,3.04,14.15,3,21.06-.13l4.43-2.01q22.56-10.24,45.93-12.78l6.98-.76c7.61-.85,13.72-4.43,18.18-10.65l2.84-3.95q14.42-20.14,33.39-34.03l5.66-4.15c6.16-4.54,9.67-10.7,10.42-18.31l.47-4.83q2.41-24.66,11.89-46.16l2.84-6.45c3.07-7.01,3.03-14.1-.13-21.06l-10.29-22.73Zm-4.58,33.85h0c0,18.5-3.64,36.55-10.56,53.26-6.92,16.71-17.11,32.06-30.19,45.14-13.08,13.08-28.43,23.27-45.14,30.19-14.49,6-30,9.53-45.94,10.36-.13,0-.27,.02-.4,.03-1.25,.06-2.51,.06-3.76,.09-1.05,.02-2.1,.08-3.15,.08h0c-16.55,0-32.73-2.94-47.92-8.51-1.79-.66-3.57-1.33-5.34-2.06-15.89-6.58-30.52-16.15-43.17-28.32-.65-.63-1.32-1.23-1.97-1.87-10.66-10.66-19.36-22.84-25.98-36.02-1.5-2.99-2.94-6.02-4.22-9.12-4.67-11.26-7.8-23.15-9.38-35.37-.76-5.9-1.19-11.86-1.19-17.88h0c0-18.5,3.64-36.55,10.56-53.26,6.92-16.71,17.11-32.06,30.19-45.14,13.08-13.08,28.43-23.27,45.14-30.19,14.49-6,30-9.53,45.94-10.36,.13,0,.27-.02,.4-.03,1.25-.06,2.51-.06,3.76-.09,1.05-.02,2.1-.08,3.15-.08h0c16.55,0,32.73,2.94,47.92,8.51,1.79,.66,3.57,1.33,5.33,2.06,15.86,6.57,30.46,16.11,43.1,28.25,.68,.65,1.37,1.28,2.04,1.94,10.66,10.66,19.36,22.84,25.98,36.02,1.5,2.99,2.94,6.02,4.22,9.12,4.67,11.26,7.8,23.15,9.38,35.37,.76,5.9,1.19,11.86,1.19,17.88h0Z"/><path class="cls-1" d="M324.39,154.57c-.61-1.41-1.21-2.82-1.86-4.2-.38-.81-.8-1.6-1.2-2.4-.56-1.14-1.11-2.28-1.71-3.4-.45-.85-.95-1.68-1.42-2.53-.59-1.05-1.16-2.1-1.77-3.13-.52-.87-1.07-1.71-1.6-2.56-.62-.98-1.22-1.97-1.86-2.94-.57-.86-1.18-1.7-1.77-2.55-.65-.94-1.29-1.88-1.97-2.8-.62-.85-1.28-1.68-1.92-2.51-.69-.89-1.37-1.79-2.08-2.67-.68-.84-1.39-1.65-2.08-2.47-.72-.85-1.44-1.7-2.18-2.53-.73-.82-1.5-1.62-2.25-2.42-.55-.59-1.1-1.17-1.66-1.75l-26.8,26.8c.39,.41,.76,.83,1.14,1.24,.46,.5,.93,.99,1.38,1.5,.59,.66,1.16,1.33,1.73,2.01,.45,.53,.9,1.06,1.34,1.6,.55,.68,1.08,1.37,1.61,2.06,.42,.55,.85,1.1,1.26,1.66,.52,.71,1.02,1.43,1.52,2.15,.39,.56,.78,1.11,1.15,1.68,.5,.76,.98,1.53,1.46,2.31,.34,.54,.69,1.08,1.01,1.63,.5,.84,.97,1.69,1.44,2.55,.28,.5,.57,.99,.84,1.5,.52,.99,1.02,1.99,1.5,2.99,.19,.39,.39,.77,.58,1.16,.66,1.4,1.29,2.82,1.89,4.26,.27,.64,.5,1.29,.75,1.94,4.34,11.15,6.65,23.11,6.65,35.37s-2.29,24.16-6.61,35.29c-.26,.67-.5,1.36-.78,2.02-.03,.08-.07,.16-.11,.25-.56,1.35-1.15,2.68-1.77,4-.21,.44-.44,.86-.65,1.3-.47,.96-.94,1.91-1.44,2.86-.27,.52-.57,1.02-.85,1.53-.47,.84-.93,1.69-1.43,2.52-.33,.55-.67,1.08-1.01,1.63-.48,.78-.96,1.55-1.47,2.31-.37,.56-.76,1.11-1.15,1.67-.5,.72-1,1.45-1.52,2.15-.42,.57-.85,1.12-1.28,1.68-.52,.68-1.04,1.36-1.58,2.02-.45,.56-.93,1.11-1.4,1.67-.54,.64-1.09,1.28-1.65,1.91-.49,.55-1,1.1-1.5,1.64-.35,.38-.69,.77-1.05,1.15l26.8,26.8c.64-.65,1.26-1.32,1.89-1.98,.66-.7,1.32-1.4,1.96-2.12,.82-.92,1.61-1.85,2.4-2.79,.63-.74,1.27-1.48,1.89-2.24,.76-.94,1.49-1.9,2.23-2.85,.6-.78,1.21-1.55,1.79-2.34,.72-.97,1.39-1.97,2.08-2.96,.55-.8,1.12-1.59,1.66-2.4,.69-1.04,1.34-2.1,1.99-3.15,.49-.78,1-1.56,1.47-2.35,.7-1.17,1.35-2.37,2.02-3.56,.39-.7,.79-1.38,1.17-2.08,.82-1.54,1.6-3.11,2.36-4.68,.18-.36,.37-.72,.54-1.08,.93-1.97,1.81-3.96,2.65-5.97,6.73-16.24,10.27-33.81,10.27-51.84s-3.54-35.6-10.27-51.84c-.24-.57-.5-1.13-.75-1.69Z"/><path class="cls-2" d="M356.6,195.83l-10.29-22.74c-1.19-2.61-1.83-4.95-2.15-7.82l-2.88-25.93c-.93-8.32-5.01-15.29-11.8-20.16l-20.28-14.54c-2.34-1.68-4.06-3.38-5.77-5.7l-15.46-21.02c-4.95-6.74-11.97-10.74-20.3-11.56l-4.86-.48q-24.19-2.37-45.29-11.67l-6.43-2.83c-7.68-3.37-15.73-3.32-23.36,.14l-4.43,2.01q-22.14,10.05-45.07,12.55l-6.99,.77c-8.31,.92-15.28,5-20.16,11.8l-2.83,3.95q-14.16,19.78-32.75,33.4l-5.68,4.17c-6.74,4.95-10.74,11.98-11.56,20.3l-.47,4.83q-2.37,24.21-11.67,45.3l-2.84,6.45c-3.36,7.66-3.31,15.74,.14,23.36l2.01,4.42q10.05,22.15,12.54,45.06l.77,7.01c.92,8.31,5.01,15.28,11.8,20.16l3.96,2.83q19.77,14.15,33.4,32.76l4.15,5.67c4.95,6.74,11.97,10.73,20.3,11.56l4.86,.48q24.19,2.37,45.3,11.68l6.43,2.83c3.79,1.66,7.67,2.5,11.53,2.5s7.96-.89,11.83-2.64l4.43-2.01q22.14-10.05,45.07-12.54l6.99-.77c8.32-.92,15.29-5.01,20.16-11.8l2.84-3.96q14.15-19.78,32.76-33.39l5.67-4.16c6.74-4.96,10.74-11.98,11.56-20.3l.47-4.83q2.37-24.21,11.67-45.3l2.84-6.46c3.35-7.66,3.31-15.74-.14-23.36Zm-2.45,22.23l-2.84,6.45q-9.48,21.5-11.89,46.16l-.47,4.83c-.75,7.61-4.26,13.77-10.42,18.31l-5.66,4.15q-18.97,13.89-33.39,34.03l-2.84,3.95c-4.45,6.22-10.57,9.8-18.18,10.65l-6.98,.76q-23.37,2.54-45.93,12.78l-4.43,2.01c-6.91,3.13-14.11,3.17-21.06,.13l-6.42-2.82q-21.52-9.49-46.17-11.9l-4.85-.48c-7.62-.75-13.78-4.26-18.3-10.43l-4.15-5.66q-13.89-18.97-34.03-33.39l-3.96-2.83c-6.22-4.46-9.8-10.57-10.64-18.18l-.77-7q-2.54-23.36-12.78-45.92l-2-4.42c-3.16-6.96-3.2-14.05-.13-21.06l2.83-6.44q9.48-21.51,11.9-46.17l.47-4.83c.75-7.61,4.26-13.77,10.42-18.3l5.68-4.16q18.96-13.88,33.38-34.04l2.83-3.94c4.46-6.22,10.57-9.8,18.18-10.64l6.98-.76q23.38-2.54,45.93-12.78l4.43-2.01c3.5-1.59,7.09-2.39,10.66-2.39s6.98,.77,10.4,2.27l6.43,2.83q21.51,9.49,46.16,11.9l4.85,.48c7.61,.75,13.77,4.26,18.3,10.42l15.46,21.02c1.87,2.54,3.84,4.49,6.4,6.32l20.28,14.54c6.22,4.46,9.8,10.57,10.64,18.17l2.87,25.94c.35,3.13,1.08,5.81,2.38,8.67l10.29,22.73c3.16,6.97,3.2,14.05,.13,21.06Z"/><path class="cls-3" d="M328.59,154.85c-1.28-3.09-2.71-6.12-4.22-9.12-6.62-13.18-15.32-25.36-25.98-36.02-.67-.67-1.36-1.29-2.04-1.94-12.63-12.13-27.24-21.68-43.1-28.25-1.76-.73-3.54-1.4-5.33-2.06-15.19-5.57-31.37-8.51-47.92-8.51h0c-1.05,0-2.1,.05-3.15,.08-1.25,.03-2.51,.03-3.76,.09-.14,0-.27,.02-.4,.03-15.94,.83-31.45,4.36-45.94,10.36-16.71,6.92-32.06,17.11-45.14,30.19-13.08,13.08-23.27,28.43-30.19,45.14-6.92,16.71-10.56,34.76-10.56,53.26h0c0,6.02,.43,11.99,1.19,17.89,1.57,12.22,4.71,24.1,9.38,35.37,1.28,3.09,2.71,6.12,4.22,9.12,6.62,13.18,15.32,25.36,25.98,36.02,.64,.64,1.31,1.24,1.97,1.87,12.65,12.17,27.28,21.74,43.17,28.32,1.76,.73,3.54,1.4,5.34,2.06,15.19,5.57,31.37,8.51,47.92,8.51h0c1.05,0,2.1-.05,3.15-.08,1.25-.03,2.51-.03,3.76-.09,.13,0,.27-.02,.4-.03,15.94-.83,31.45-4.36,45.94-10.36,16.71-6.92,32.06-17.11,45.14-30.19,13.08-13.08,23.27-28.43,30.19-45.14,6.92-16.71,10.56-34.76,10.56-53.26h0c0-6.02-.43-11.99-1.19-17.89-1.57-12.22-4.71-24.1-9.38-35.37ZM107.46,109.3c.76-.71,1.51-1.43,2.29-2.12,.87-.78,1.76-1.52,2.64-2.28,.79-.67,1.57-1.35,2.37-2,.91-.74,1.84-1.44,2.76-2.15,.81-.62,1.6-1.25,2.42-1.85,.96-.71,1.94-1.38,2.92-2.05,.81-.56,1.61-1.14,2.43-1.68,1.03-.69,2.09-1.33,3.14-1.99,.79-.49,1.57-1,2.36-1.48,1.13-.68,2.29-1.31,3.44-1.95,.74-.41,1.47-.84,2.21-1.24,1.31-.7,2.64-1.35,3.97-2,.61-.3,1.21-.62,1.82-.91,1.91-.9,3.83-1.75,5.78-2.56,.05-.02,.1-.05,.15-.07,1.77-.73,3.56-1.41,5.36-2.07,14.72-5.37,30.42-8.2,46.48-8.2,18.03,0,35.6,3.54,51.84,10.27,2,.83,3.98,1.71,5.94,2.63,.58,.28,1.15,.58,1.73,.87,1.36,.67,2.72,1.33,4.06,2.04,.75,.4,1.48,.83,2.22,1.24,1.15,.64,2.3,1.27,3.43,1.94,.82,.49,1.62,1.01,2.42,1.51,1.03,.64,2.06,1.27,3.07,1.94,.85,.57,1.69,1.16,2.53,1.75,.94,.65,1.89,1.3,2.81,1.98,.86,.63,1.7,1.3,2.55,1.95,.88,.68,1.76,1.35,2.62,2.05,.85,.69,1.68,1.41,2.52,2.12,.83,.71,1.67,1.41,2.48,2.14,.82,.74,1.63,1.5,2.44,2.26,.58,.55,1.17,1.1,1.74,1.66l-26.8,26.8c-.42-.4-.85-.78-1.27-1.17-.48-.44-.95-.89-1.44-1.32-.7-.63-1.42-1.24-2.14-1.84-.48-.41-.96-.82-1.45-1.21-.74-.6-1.5-1.19-2.27-1.77-.48-.37-.96-.74-1.45-1.1-.79-.58-1.6-1.14-2.41-1.69-.48-.33-.95-.66-1.43-.98-.85-.57-1.72-1.1-2.59-1.64-.45-.28-.9-.57-1.35-.84-.95-.57-1.92-1.1-2.89-1.63-.39-.21-.77-.44-1.16-.65-1.16-.62-2.33-1.2-3.52-1.77-.21-.1-.42-.21-.63-.32-1.42-.67-2.85-1.31-4.3-1.91-11.7-4.84-24.34-7.39-37.31-7.39h0c-4.64,0-9.24,.34-13.76,.98-.22,.03-.44,.05-.66,.08-.14,.02-.28,.05-.42,.07-7.75,1.19-15.28,3.28-22.46,6.26-1.45,.6-2.88,1.24-4.29,1.91-.22,.1-.44,.22-.66,.33-1.17,.56-2.34,1.14-3.49,1.76-.4,.21-.79,.45-1.19,.67-.96,.53-1.92,1.06-2.86,1.62-.46,.28-.92,.57-1.38,.86-.86,.53-1.72,1.06-2.57,1.62-.49,.32-.97,.67-1.45,1-.8,.55-1.6,1.1-2.38,1.67-.5,.37-.98,.75-1.48,1.12-.75,.57-1.5,1.15-2.24,1.75-.5,.4-.99,.82-1.48,1.24-.71,.6-1.41,1.2-2.1,1.82-.5,.44-.98,.9-1.47,1.35-.41,.39-.84,.76-1.25,1.15l-26.8-26.79c.61-.6,1.23-1.18,1.86-1.77Zm175.28,54.67c.89,1.66,1.7,3.35,2.49,5.06,.48,1.06,.97,2.11,1.41,3.18,4.65,11.23,7.1,23.39,7.1,35.89,0,6.98-.79,13.84-2.27,20.5-1.17,5.28-2.77,10.43-4.83,15.39-.44,1.07-.93,2.13-1.41,3.18-.78,1.71-1.6,3.4-2.49,5.06-4.31,8.05-9.83,15.52-16.46,22.15-8.84,8.84-19.16,15.7-30.39,20.36-11.23,4.65-23.39,7.1-35.89,7.1-12.5,0-24.66-2.45-35.89-7.1-5.47-2.27-10.73-5.07-15.71-8.37-.13-.08-.26-.16-.38-.24-1.83-1.22-3.61-2.54-5.36-3.9-.86-.67-1.72-1.34-2.56-2.04-2.2-1.83-4.33-3.76-6.38-5.81-6.63-6.63-12.15-14.09-16.46-22.15-.89-1.66-1.71-3.35-2.49-5.06-.48-1.06-.97-2.11-1.41-3.18-4.65-11.23-7.1-23.39-7.1-35.89,0-6.98,.79-13.84,2.27-20.5,1.17-5.28,2.77-10.43,4.83-15.39,.44-1.07,.93-2.13,1.41-3.18,.78-1.71,1.6-3.4,2.49-5.06,4.31-8.05,9.83-15.52,16.46-22.15,8.84-8.84,19.16-15.7,30.39-20.36,11.23-4.65,23.39-7.1,35.89-7.1,12.5,0,24.66,2.45,35.89,7.1,5.47,2.27,10.73,5.07,15.71,8.37,.13,.08,.26,.16,.38,.24,1.83,1.22,3.61,2.54,5.36,3.9,.86,.67,1.72,1.34,2.56,2.04,2.2,1.83,4.33,3.76,6.38,5.81,6.63,6.63,12.15,14.09,16.46,22.15ZM102.96,302.5c-.56-.58-1.12-1.16-1.67-1.75-.75-.8-1.51-1.6-2.25-2.42-.74-.83-1.46-1.68-2.18-2.53-.7-.82-1.41-1.64-2.08-2.47-.71-.88-1.39-1.77-2.08-2.67-.64-.84-1.3-1.66-1.92-2.51-.68-.92-1.32-1.87-1.98-2.8-.59-.85-1.19-1.68-1.76-2.54-.65-.97-1.25-1.97-1.87-2.96-.53-.85-1.08-1.69-1.59-2.55-.61-1.03-1.19-2.09-1.77-3.13-.47-.84-.96-1.68-1.42-2.53-.59-1.12-1.14-2.25-1.7-3.39-.4-.8-.82-1.6-1.21-2.41-.65-1.39-1.26-2.79-1.86-4.2-.24-.57-.51-1.12-.75-1.69-6.73-16.24-10.27-33.81-10.27-51.84s3.54-35.6,10.27-51.84c.83-2.01,1.72-4,2.65-5.97,.17-.37,.37-.72,.54-1.08,.76-1.57,1.53-3.14,2.36-4.68,.37-.7,.78-1.39,1.17-2.08,.66-1.19,1.31-2.38,2.01-3.55,.47-.79,.98-1.57,1.47-2.36,.66-1.05,1.31-2.11,1.99-3.15,.54-.81,1.1-1.6,1.66-2.39,.69-.99,1.37-1.99,2.08-2.96,.58-.79,1.19-1.56,1.79-2.34,.74-.96,1.47-1.92,2.23-2.86,.61-.76,1.26-1.5,1.89-2.24,.79-.93,1.58-1.87,2.4-2.78,.64-.72,1.31-1.42,1.97-2.12,.62-.66,1.25-1.32,1.88-1.98l26.8,26.8c-.36,.38-.7,.77-1.05,1.15-.51,.54-1.01,1.09-1.5,1.64-.56,.63-1.11,1.27-1.65,1.91-.47,.55-.94,1.11-1.4,1.67-.54,.67-1.06,1.34-1.58,2.02-.43,.56-.86,1.12-1.28,1.68-.52,.71-1.02,1.43-1.52,2.16-.38,.56-.78,1.11-1.15,1.67-.51,.76-.98,1.54-1.47,2.32-.34,.54-.68,1.07-1.01,1.62-.5,.83-.96,1.68-1.43,2.53-.28,.51-.58,1.01-.85,1.52-.5,.94-.97,1.9-1.44,2.86-.21,.43-.44,.86-.65,1.3-.62,1.32-1.21,2.65-1.77,4-.03,.08-.07,.16-.11,.25-.28,.67-.52,1.35-.78,2.02-4.32,11.13-6.62,23.05-6.62,35.29s2.3,24.22,6.65,35.37c.25,.65,.48,1.3,.75,1.94,.59,1.43,1.22,2.85,1.89,4.26,.18,.39,.39,.77,.58,1.16,.49,1,.98,2,1.5,2.99,.27,.5,.56,1,.84,1.5,.47,.85,.94,1.71,1.44,2.55,.33,.55,.68,1.09,1.01,1.63,.48,.77,.96,1.55,1.46,2.31,.37,.56,.76,1.11,1.15,1.67,.5,.72,1,1.45,1.52,2.16,.41,.56,.84,1.11,1.26,1.66,.53,.69,1.06,1.38,1.61,2.06,.44,.54,.89,1.07,1.34,1.6,.57,.67,1.14,1.35,1.73,2.01,.45,.51,.92,1,1.38,1.5,.38,.41,.75,.84,1.14,1.24l-26.8,26.8Zm189.57,4.41c-.76,.71-1.51,1.43-2.28,2.12-.87,.78-1.76,1.52-2.64,2.28-.79,.67-1.57,1.35-2.37,2-.91,.74-1.83,1.44-2.76,2.15-.81,.62-1.6,1.25-2.42,1.86-.96,.71-1.94,1.38-2.92,2.05-.81,.56-1.61,1.14-2.43,1.68-1.03,.69-2.09,1.33-3.14,1.99-.79,.49-1.57,1-2.36,1.48-1.14,.68-2.3,1.31-3.45,1.95-.73,.41-1.46,.84-2.2,1.23-1.31,.7-2.65,1.35-3.98,2.01-.61,.3-1.2,.62-1.81,.91-1.91,.9-3.83,1.75-5.78,2.56-.05,.02-.1,.05-.15,.07-1.77,.73-3.56,1.41-5.36,2.07-14.72,5.37-30.42,8.2-46.48,8.2-18.03,0-35.6-3.54-51.84-10.27-2-.83-3.98-1.71-5.94-2.63-.58-.27-1.15-.58-1.72-.86-1.36-.67-2.73-1.33-4.07-2.05-.74-.4-1.47-.83-2.2-1.24-1.15-.64-2.31-1.27-3.44-1.95-.82-.49-1.62-1.01-2.42-1.51-1.03-.64-2.06-1.27-3.07-1.94-.85-.57-1.68-1.16-2.52-1.75-.94-.65-1.89-1.3-2.81-1.98-.86-.63-1.7-1.3-2.55-1.95-.88-.68-1.76-1.35-2.62-2.05-.85-.69-1.68-1.41-2.52-2.12-.83-.71-1.67-1.41-2.49-2.15-.82-.74-1.63-1.5-2.43-2.26-.59-.55-1.17-1.1-1.75-1.66l26.8-26.8c.42,.4,.85,.78,1.27,1.17,.48,.44,.95,.89,1.44,1.32,.7,.63,1.42,1.24,2.13,1.84,.48,.41,.96,.82,1.45,1.21,.74,.6,1.5,1.19,2.26,1.77,.48,.37,.96,.74,1.45,1.1,.79,.58,1.6,1.14,2.4,1.69,.48,.33,.95,.67,1.44,.99,.85,.56,1.72,1.1,2.58,1.64,.45,.28,.9,.57,1.36,.85,.95,.57,1.92,1.1,2.88,1.63,.39,.21,.77,.44,1.17,.65,1.16,.62,2.33,1.2,3.52,1.77,.21,.1,.42,.21,.63,.32,1.42,.67,2.85,1.31,4.3,1.91,11.7,4.84,24.34,7.39,37.31,7.39h0c4.64,0,9.24-.34,13.76-.98,.22-.03,.44-.05,.66-.08,.11-.02,.21-.04,.31-.05,7.79-1.18,15.36-3.29,22.57-6.27,1.45-.6,2.88-1.24,4.29-1.91,.22-.1,.44-.22,.66-.33,1.17-.56,2.34-1.14,3.49-1.76,.4-.21,.79-.44,1.19-.66,.96-.53,1.92-1.06,2.86-1.62,.46-.28,.92-.57,1.37-.85,.86-.53,1.72-1.07,2.57-1.63,.49-.32,.97-.67,1.45-1,.8-.55,1.6-1.1,2.38-1.68,.5-.36,.98-.74,1.47-1.12,.75-.57,1.5-1.15,2.24-1.75,.5-.4,.99-.82,1.48-1.24,.71-.6,1.41-1.2,2.11-1.82,.5-.44,.98-.9,1.47-1.35,.42-.39,.84-.76,1.25-1.15l26.8,26.79c-.61,.6-1.24,1.19-1.86,1.77Zm32.6-46.97c-.83,2.01-1.72,4-2.65,5.97-.17,.37-.37,.72-.54,1.08-.76,1.57-1.53,3.14-2.36,4.68-.37,.7-.78,1.39-1.17,2.08-.66,1.19-1.32,2.39-2.02,3.56-.47,.79-.98,1.57-1.47,2.35-.66,1.05-1.31,2.11-1.99,3.15-.54,.81-1.11,1.6-1.66,2.4-.69,.99-1.37,1.98-2.08,2.96-.58,.79-1.19,1.56-1.79,2.34-.74,.96-1.47,1.92-2.23,2.85-.61,.76-1.26,1.49-1.89,2.24-.79,.93-1.58,1.87-2.4,2.79-.64,.72-1.31,1.41-1.96,2.12-.62,.67-1.25,1.33-1.89,1.98l-26.8-26.8c.36-.38,.7-.77,1.05-1.15,.51-.54,1.01-1.09,1.5-1.64,.56-.63,1.11-1.27,1.65-1.91,.47-.55,.94-1.11,1.4-1.67,.54-.67,1.06-1.34,1.58-2.02,.43-.56,.86-1.12,1.28-1.68,.52-.71,1.02-1.43,1.52-2.15,.38-.56,.78-1.11,1.15-1.67,.51-.76,.98-1.54,1.47-2.31,.34-.54,.69-1.08,1.01-1.63,.49-.83,.96-1.68,1.43-2.52,.28-.51,.58-1.01,.85-1.53,.5-.94,.97-1.9,1.44-2.86,.21-.43,.44-.86,.65-1.3,.62-1.32,1.21-2.65,1.77-4,.03-.08,.07-.16,.11-.25,.28-.67,.52-1.35,.78-2.02,4.32-11.13,6.61-23.05,6.61-35.29s-2.3-24.22-6.65-35.37c-.25-.65-.48-1.3-.75-1.94-.59-1.43-1.22-2.85-1.89-4.26-.18-.39-.39-.77-.58-1.16-.49-1-.98-2-1.5-2.99-.27-.5-.56-1-.84-1.5-.47-.85-.94-1.71-1.44-2.55-.33-.55-.68-1.09-1.01-1.63-.48-.77-.96-1.55-1.46-2.31-.37-.57-.77-1.12-1.15-1.68-.5-.72-1-1.44-1.52-2.15-.41-.56-.84-1.11-1.26-1.66-.53-.69-1.06-1.38-1.61-2.06-.44-.54-.89-1.07-1.34-1.6-.57-.67-1.14-1.35-1.73-2.01-.45-.51-.92-1-1.38-1.5-.38-.41-.75-.84-1.14-1.24l26.8-26.8c.56,.58,1.11,1.16,1.66,1.75,.76,.8,1.52,1.6,2.25,2.42,.74,.83,1.46,1.68,2.18,2.53,.7,.82,1.41,1.64,2.08,2.47,.71,.88,1.39,1.77,2.08,2.67,.64,.84,1.3,1.66,1.92,2.51,.68,.92,1.32,1.86,1.97,2.8,.59,.85,1.2,1.69,1.77,2.55,.64,.97,1.25,1.96,1.86,2.94,.53,.85,1.09,1.7,1.6,2.56,.61,1.03,1.19,2.08,1.77,3.13,.47,.84,.96,1.68,1.42,2.53,.6,1.12,1.15,2.26,1.71,3.4,.4,.8,.82,1.59,1.2,2.4,.65,1.39,1.26,2.79,1.86,4.2,.24,.57,.51,1.12,.75,1.69,6.73,16.24,10.27,33.81,10.27,51.84s-3.54,35.6-10.27,51.84Z"/></g><path class="cls-3" d="M243.07,228.53c.41-3.04,.63-6.16,.63-9.35,0-3.43-.25-6.78-.72-10.04,1.78-1.1,3.47-2.39,5.03-3.9,11.32-10.94,12.12-28.75,2.22-40.68l.05-.05-.85-.88c-.21-.23-.39-.47-.61-.7l-1.36-1.42-17.61,17.01c-1.86-2.23-3.88-4.26-6.02-6.06,4.55-7.28,5.53-16.2,2.55-24.37-2.56-7.02-7.7-12.62-14.47-15.78-6.77-3.16-14.37-3.48-21.39-.92-7.02,2.56-12.62,7.7-15.78,14.47-3.15,6.77-3.48,14.37-.92,21.39,.56,1.53,1.26,3,2.07,4.41-2.08,1.65-4.04,3.5-5.87,5.54l-16.33-15.64-1.35,1.42c-11.35,11.94-10.9,30.91,.99,42.31h0c.86,.82,1.76,1.56,2.68,2.26-.63,3.75-.97,7.64-.97,11.63,0,2.93,.19,5.81,.53,8.62-1.35,1.03-2.65,2.16-3.85,3.44-11.22,12.06-10.57,31.03,1.45,42.29l1.43,1.34,.85-.92h0l.49-.53,12.8-13.76c7.97,9.64,18.75,15.59,30.62,15.59s22.22-5.71,30.14-15.01l12.45,13.39,.29,.32h0l.86,.92,1.43-1.34c12.02-11.26,12.67-30.23,1.45-42.29-.92-.99-1.91-1.87-2.92-2.71Zm4.35-61.26c8.42,10.37,7.65,25.71-2.13,35.15-.96,.93-2,1.75-3.06,2.5-1.81-8.71-5.24-16.6-9.85-23.12l15.04-14.54Zm-69.93-1.36c-2.2-6.04-1.92-12.57,.8-18.4,2.71-5.83,7.53-10.24,13.57-12.45s12.57-1.92,18.4,.8c5.83,2.71,10.24,7.53,12.45,13.57,2.52,6.9,1.72,14.42-2.02,20.62-6.33-4.42-13.59-6.95-21.31-6.95-7.31,0-14.2,2.26-20.28,6.24-.61-1.1-1.16-2.24-1.6-3.43Zm21.87,1.11c10.77,0,20.57,5.48,27.82,14.37l-18.18,17.58h-17.96l-18.63-18.63c7.16-8.28,16.6-13.32,26.95-13.32Zm17.3,50.56l-8.49,14.7h-16.97l-8.49-14.7,8.49-14.7h16.97l8.49,14.7Zm-62.87-50.33l13.41,13.41c-4.73,6.31-8.31,14.01-10.33,22.55-.28-.25-.57-.47-.84-.73h0c-9.84-9.42-10.66-24.81-2.23-35.22Zm.65,102.01c-9.08-9.91-9.16-25.36,.14-35.36,.54-.58,1.1-1.12,1.68-1.64,1.72,9.07,5.2,17.29,9.94,24.06l-11.75,12.93Zm4.5-50.08c0-13.83,4.2-26.41,11.03-35.75l17.72,17.72-9.49,16.44,9.02,15.62-18.34,20.18c-6.18-9.16-9.94-21.12-9.94-34.19Zm40.42,52.16c-10.92,0-20.84-5.63-28.13-14.75l18.54-20.4h18.62l18.71,20.87c-7.25,8.84-17.01,14.27-27.74,14.27Zm12.33-37.32l9.49-16.43-9.24-16.01,17.61-17.03c6.36,9.22,10.23,21.35,10.23,34.63s-3.89,25.48-10.28,34.71l-17.81-19.87Zm31.58,35.23l-11.11-12.39c4.79-6.66,8.31-14.78,10.13-23.76,.27,.27,.56,.52,.82,.8,9.3,9.99,9.22,25.44,.15,35.34Z"/><g><circle class="cls-2" cx="272.83" cy="114.09" r="2.83"/><circle class="cls-2" cx="130.6" cy="114.09" r="2.83"/><path class="cls-2" d="M130.3,298.82c-1.56,0-2.83,1.27-2.83,2.83s1.26,2.83,2.83,2.83,2.83-1.26,2.83-2.83-1.27-2.83-2.83-2.83Z"/><path class="cls-2" d="M269.7,304.47c1.56,0,2.83-1.26,2.83-2.83s-1.27-2.83-2.83-2.83-2.83,1.27-2.83,2.83,1.26,2.83,2.83,2.83Z"/></g></svg>